<svg id="Calque_1" data-name="Calque 1" xmlns="http://www.w3.org/2000/svg" viewBox="0 0 160 160"><defs><style>.cls-1{fill:#eebf00;}.cls-2{fill:#ffd421;}.cls-3{fill:#ddb200;}</style></defs><title>Merite</title><rect class="cls-1" x="68.49" y="90.96" width="11.81" height="37.96"/><path class="cls-2" d="M80.3,118v22H56.78a4.92,4.92,0,0,1-4.92-4.92v-12.2A4.92,4.92,0,0,1,56.78,118Z"/><path class="cls-2" d="M46.83,78.64a24,24,0,0,1-14-4.08c-5.38-3.79-8.62-9.94-9.64-18.27-.88-7.33.71-13.39,4.75-18,7-8,18.71-8.33,19.21-8.34l.17,9c-.08,0-8.3.27-12.62,5.28-2.31,2.67-3.15,6.27-2.57,11,.69,5.7,2.67,9.74,5.89,12,4.92,3.47,11.9,2.39,14.67,1.76l2,8.78A36.35,36.35,0,0,1,46.83,78.64Z"/><path class="cls-2" d="M80.3,20V98.9a5.72,5.72,0,0,1-.59,0,23.67,23.67,0,0,1-11.22-2.7C61.77,92.7,56.91,86,53.39,78a75,75,0,0,1-3.17-8.6h0a145.75,145.75,0,0,1-5.34-30.2c-.28-3.32-.44-6.38-.54-9,0-1.12-.07-2.17-.09-3.13a6.88,6.88,0,0,1,6.88-7Z"/><path class="cls-1" d="M116.37,27.15c0,1-.08,2-.15,3.11-.14,2.65-.35,5.69-.68,9a146.64,146.64,0,0,1-5.84,30.13A78.83,78.83,0,0,1,106.4,78c-3.66,8-8.66,14.76-15.47,18.28A23.55,23.55,0,0,1,80.3,98.9V20h29.19A6.89,6.89,0,0,1,116.37,27.15Z"/><path class="cls-3" d="M136.81,56.28c-1,8.34-4.26,14.49-9.64,18.28a24,24,0,0,1-14,4.08A35.21,35.21,0,0,1,106.4,78a78.83,78.83,0,0,0,3.3-8.57c3.37.46,8.45.51,12.28-2.19,3.22-2.26,5.2-6.3,5.89-12,.58-4.73-.26-8.33-2.57-11-2.71-3.14-7-4.42-9.76-4.94.33-3.31.54-6.35.68-9,4.1.64,11.07,2.52,15.84,8C136.1,42.9,137.7,49,136.81,56.28Z"/><path class="cls-3" d="M90.93,96.24V118H80.3V98.9A23.55,23.55,0,0,0,90.93,96.24Z"/><path class="cls-1" d="M107.55,122.88v12.2a4.92,4.92,0,0,1-4.92,4.92H80.3V118h22.33A4.92,4.92,0,0,1,107.55,122.88Z"/></svg>